<mxfile host="65bd71144e">
    <diagram id="Ut9z5I9eI5lCZn3pyzXf" name="Page-1">
        <mxGraphModel dx="990" dy="671" grid="1" gridSize="4" guides="1" tooltips="1" connect="1" arrows="1" fold="1" page="1" pageScale="1" pageWidth="850" pageHeight="1100" math="0" shadow="0">
            <root>
                <mxCell id="0"/>
                <mxCell id="1" parent="0"/>
            </root>
        </mxGraphModel>
    </diagram>
</mxfile>